<?xml version="1.0" encoding="utf-8"?>
<!-- Generator: Adobe Illustrator 24.1.2, SVG Export Plug-In . SVG Version: 6.00 Build 0)  -->
<svg version="1.1" id="Layer_1" xmlns="http://www.w3.org/2000/svg" xmlns:xlink="http://www.w3.org/1999/xlink" x="0px" y="0px"
	 viewBox="0 0 624.5 289.5" style="enable-background:new 0 0 624.5 289.5;" xml:space="preserve">
<style type="text/css">
	.st0{fill:#FFAE21;}
	.st1{fill:#103C78;}
	.st2{fill:#0C3E75;}
</style>
<g>
	<path class="st0" d="M526.6,104.4c6.4-6.6,7.7-15,6-23.2c-1.4-6.4-1.9-14.7-11.1-16.3c0.8-4.9,1.7-9.6,2.5-14.3
		c1.3-8.3,0.4-9.9-6.7-14.1c-15.3-9.1-32-11-49.1-9.1c-13.2,1.5-25.4,6.4-34.1,16.8c-5.1,6.1-8.7,13.4-12.4,19.4c0-4,0.1-9.3,0-14.6
		c-0.1-9-4.6-15.9-13-18.8c-10.6-3.7-21.3-3.2-31.6,1.4c-3.2,1.4-6,3.8-9.5,6.1c-2.9-5.5-8.4-8.6-14.9-9.1c-6.4-0.5-13-0.4-19.3,0.7
		c-6.9,1.2-13.2,4.2-14,13.6c-5.8-10.2-14-14.5-24.6-14.9c-10.4-0.4-19.5,2.9-27.8,9.3c-9.1-10.5-20.5-10.7-32.3-8.1
		c-11.7,2.6-14.4,6.5-14.4,18.4c0,11,0,22,0,33.1c-0.5,0-1,0-1.4,0c-0.4-4.8-0.7-9.6-1.2-14.3c-0.5-5-1.1-9.9-1.8-14.9
		c-1.3-8.9-3.7-14.6-7.7-18.2c1.3,8.6-0.1,22.6-3.6,25.7c-4.4,3.8-9.6,2.7-13.5-5c-2.7-5.3-12.3-16.9-21.5-23.2
		c-3.9,1.8-6.7,5.1-6.9,11.3c0,0.6-0.7,1.1-1.4,2.3c-1.1-3.2-1.8-5.9-3-8.4c-0.7-1.5-1.8-3.4-3.2-4c-6.4-2.5-12.7-4-18.9-4.2
		c-10.6,4.5-23.7,19.9-27,26.3c-1,1.9-2,3.4-3.1,4.5c-2,19.9-4,39.8-5.8,59.7c-0.7,7.4,2.1,13.5,8.8,17.2
		c15.4,8.6,31.1,8.1,46.7,0.5c1.7-0.8,3.1-3.7,3.4-5.8c0.7-4.4,0.5-9,0.7-13.8c2.5,0.2,4.1,0.3,5.7,0.4c0.2,1.5,0.4,2.5,0.5,3.4
		c0.3,10.4,5.7,16.8,15.5,19.5c10.2,2.8,20.5,2.6,30.3-1.4c11.1-4.5,12.5-7.7,11.1-19.8c-0.1-0.7,0.1-1.4,0.2-3
		c11.7,22.3,30.8,27.9,53,26.5c20.2-1.3,36.1-9.6,43.2-30.3c0.3,2.9,0.3,5.6,0.3,8.4c0.3,9.1,4.7,15.2,13.2,18.7
		c7.7,3.2,15.7,3,23.6,1.8c6.2-1,12.6-2.8,16.4-7.8c2.9,1.9,5.6,4.2,8.7,5.6c7.5,3.5,15.6,3.4,23.5,2.4c12.3-1.6,16.8-7.2,16.8-19.8
		c0-5.9,0-11.8,0-17.7c4.2,11.9,10.7,21.8,21.4,28.7c7.9,5.1,16.4,8.6,25.9,9.8c18,2.3,35,0.2,50.7-9.8c4.3-2.7,6.8-5.9,6.1-11.3
		c-0.5-4.1-0.2-8.3,0-12.5C525.5,106.7,525.8,105.2,526.6,104.4z M225.7,94.4c0.1-8.3,0-16.7,0-25c0-6.5-0.1-13,0-19.5
		c-0.1,6.5,0,13,0,19.5C225.7,77.7,225.7,86,225.7,94.4z M325.3,120.2c0.1-12.8,0-25.7,0-38.5c0-12.7,0.2-25.3-0.1-38
		c0.2,12.7,0.1,25.3,0.1,38C325.3,94.5,325.4,107.3,325.3,120.2z"/>
	<path class="st0" d="M601.6,243.7c-0.5-5.9-2.2-12.4-8.4-16.2c2.7-7.8,3.5-15.7,0.7-23.8c-1.3-3.8-1.6-7.3,2.7-9.8
		c1.4-0.8,2.1-2.9,2.8-4.6c3.9-9.3,1.6-18-2.9-26.3c-0.9-1.6-3.4-3.2-5.2-3.2c-19.3-0.2-38.6-0.3-57.9,0.1
		c-6.4,0.1-12.8,1.5-19.2,2.8c-4.8,1-7.2,4.3-7,9.5c0.2,4.4,0,8.7,0,13.1c-4.6-8.4-10.2-15.1-18.4-19.7c-10.5-5.9-21.8-7.9-33.6-8
		c-14.1-0.2-27.9,1.4-41,7.1c-6.2,2.7-9.9,6.8-9.2,14.2c0.5,5.3,0.1,10.6,0.1,15.9c-15-36.9-43.3-40.3-66.6-36.8
		c-20.8,3.1-42.4,19.8-43.6,54.3c-1.2-9.5-2.5-19-3.2-28.5c-1.1-14.3-6.9-23.2-18.2-24.7c-7.6-1-15.5-0.1-23.3,0.6
		c-6.6,0.6-11.6,3.8-11.8,11.6c0,0.8-0.6,1.5-1.2,3c-0.7-1.1-1.1-1.6-1.3-2.2c-0.8-2-1.3-4.2-2.2-6.1c-0.7-1.4-1.6-3.2-2.8-3.7
		c-15-5.9-29.8-6.4-44,2.3c-1.6,1-3.2,3.2-3.4,5c-2.8,26.5-5.4,53-7.8,79.6c-0.7,7.2,2.5,13,9,16.6c14.2,8,28.9,7.6,43.6,1.9
		c6.7-2.6,7.5-5.2,6.7-13c-0.1-0.8-0.4-1.6-0.4-2.4c-0.1-4.8,1.4-5.8,6.5-4.6c0.1,0.9,0.4,1.9,0.4,2.9c0.2,10.2,5.5,16.6,15.1,19.2
		c11,3,22,2.8,32.5-2.2c10-4.8,10.8-6.6,9.4-17.5c-0.3-2.1-0.6-4.3-0.7-6.5c-0.1-2,0-4,0-7.3c9.4,23.3,26.2,35,49.4,36.4
		c27.6,1.6,48.2-9.2,57.7-37c0.4,5.9,0.3,11.6,0.4,17.2c0.1,8,4.5,13,11.5,16c9.5,4,19.2,3.3,28.8,0.9c5.4-1.3,10.6-3.4,13.7-8.8
		c7.3,7.3,15.5,11,25.7,10.6c10.6-0.4,18.1-5.3,23.5-14.2c6.2,9.5,15,13.1,25.7,13.1c18.6-0.1,37.3-0.2,55.9,0.1
		c4.9,0.1,8-1.9,8.9-6.1C600.5,257.4,602.1,250.4,601.6,243.7z"/>
	<path class="st0" d="M112.2,182.7c-1-2.6-1.8-4.9-2.7-7.2c-3.4-8.7-9.6-14.6-18.6-16.5c-5.4-1.2-11.3-1.6-16.8-1
		c-22.2,2.2-32.7,20.1-24,40.5c1,2.4,0.8,3.7-1.4,4.8c-20.2,9.3-22.2,45.7,0.8,59.9C67,274,85.6,275.6,105,270.3
		c11.6-3.2,20.8-10.2,25.9-21.6c3.9-8.9,3.6-17.7-0.3-26.2c12.2-9,12.7-18.8,8.8-28.1C135.3,184.6,127.3,181.1,112.2,182.7z"/>
	<g>
		<path class="st1" d="M100.3,64c-2.4,0-4.8-1-7-2.9c-5.6-4.9-6.7-26.9-2.9-34.3c4.2-8.1,21.8-11.4,36.9-10.4
			c8.7,0.6,18.7,4.8,18.4,9.5c-0.1,1.7-1.5,3.5-4.3,3.3c-9-0.4-26.1,18.4-30,25.9c-3.2,6.2-6.9,8.1-9.5,8.6
			C101.4,63.9,100.9,64,100.3,64z M122.1,22.2c-13.5,0-24.4,3.6-26.4,7.3v0c-3,5.7-1.4,24.5,1.5,27c1.3,1.1,2.5,1.5,3.6,1.3
			c1.8-0.3,3.7-2.3,5.3-5.4c3.3-6.4,17.5-23.7,29.7-28.1c-2.2-0.9-5.2-1.7-8.8-2C125.4,22.3,123.7,22.2,122.1,22.2z"/>
		<path class="st1" d="M199.3,64c-0.6,0-1.1-0.1-1.7-0.2c-2.6-0.5-6.3-2.4-9.5-8.6c-3.9-7.5-20.9-26.4-30-25.9
			c-2.8,0.1-4.2-1.6-4.3-3.3c-0.3-4.7,9.7-9,18.4-9.5c15.2-1,32.7,2.3,36.9,10.4l0,0c3.8,7.3,2.7,29.4-2.9,34.3
			C204.1,63,201.7,64,199.3,64z M163.8,24.4c12.2,4.5,26.4,21.7,29.7,28.1c1.6,3.2,3.5,5.1,5.3,5.4c1.1,0.2,2.4-0.2,3.6-1.3
			c2.9-2.5,4.5-21.3,1.5-27l0,0c-2.2-4.2-15.5-8.2-31.2-7.2C169,22.6,166,23.5,163.8,24.4z"/>
		<path class="st1" d="M162.8,79.8c0,3.8-5.2,6.9-11.6,6.9s-11.6-3.1-11.6-6.9s5.2-3.8,11.6-3.8S162.8,76,162.8,79.8z"/>
		<path class="st1" d="M140.3,106.4c-0.4,0-0.6,0-0.7,0l0.3-7c1.7,0.1,5.8-0.3,7.4-1.8c0.4-0.4,0.6-0.8,0.6-1.5V85.5h7v10.7
			c0,2.5-0.9,4.8-2.7,6.5C148.5,106.1,142.4,106.4,140.3,106.4z"/>
		<path class="st1" d="M162.4,106.4c-2.2,0-8.2-0.3-11.8-3.8c-1.8-1.7-2.7-4-2.7-6.5V85.5h7v10.7c0,0.6,0.2,1.1,0.6,1.5
			c1.6,1.5,5.7,1.9,7.4,1.8l0.3,7C163,106.4,162.8,106.4,162.4,106.4z"/>
		<path class="st1" d="M209.2,26.8c-4.2-8.1-21.8-11.4-36.9-10.4c-8.7,0.6-18.7,4.8-18.4,9.5c0.1,1.7,1.5,3.5,4.3,3.3
			c9-0.4,26.1,18.4,30,25.9c3.2,6.2,6.9,8.1,9.5,8.6c0.6,0.1,1.1,0.2,1.7,0.2c2.4,0,4.8-1,7-2.9C211.9,56.2,213,34.2,209.2,26.8z
			 M202.3,56.6c-1.3,1.1-2.5,1.5-3.6,1.3c-1.8-0.3-3.7-2.3-5.3-5.4c-3.3-6.4-17.5-23.7-29.7-28.1c2.2-0.9,5.2-1.7,8.8-2
			c15.7-1,29,3,31.2,7.2C206.8,35.3,205.2,54.1,202.3,56.6z"/>
		<path class="st1" d="M127.4,16.4c-15.2-1-32.7,2.3-36.9,10.4c-3.8,7.3-2.7,29.4,2.9,34.3c2.2,1.9,4.5,2.9,7,2.9
			c0.6,0,1.1-0.1,1.7-0.2c2.6-0.5,6.3-2.4,9.5-8.6c3.9-7.5,21-26.4,30-25.9c2.8,0.1,4.2-1.6,4.3-3.3C146.1,21.2,136.1,17,127.4,16.4
			z M106.2,52.5c-1.6,3.2-3.5,5.1-5.3,5.4c-1.1,0.2-2.4-0.2-3.6-1.3c-2.9-2.5-4.5-21.3-1.5-27v0c2-3.8,12.9-7.3,26.4-7.3
			c1.6,0,3.2,0,4.9,0.2c3.6,0.2,6.6,1.1,8.8,2C123.7,28.8,109.5,46.1,106.2,52.5z"/>
		<path class="st2" d="M122.1,22.2c1.6,0,3.2,0,4.9,0.2c3.6,0.2,6.6,1.1,8.8,2c0,0,0,0,0,0c1.1,0.3,2.1,0.6,3.2,0.9
			c6.6,2.1,5.3,9.2,6.5,14.4c0.5,2.1-0.7,4.5-1,6.8c-0.4,2.8-0.9,5.6-1,8.4c-0.1,3.4,2.4,4.4,5.2,4.9c3,0.5,3.6-1.5,4.1-3.7
			c1.8-8.4,3.9-16.8,5.5-25.3c0.6-3.2,2.2-4.9,5.3-5.7c0.4-0.1,0.7-0.2,1.1-0.2c-0.3-0.1-0.7-0.3-1-0.4c2.2-0.9,5.2-1.7,8.8-2
			c12.5-0.8,23.5,1.6,28.6,4.7c-3.1-5.2-7.8-7.8-14.5-8.7c-6.2-0.8-12.6-0.5-18.8,0.1c-8,0.7-15.1,3.1-15.4,13.2
			c0,0.6-0.7,1.1-1.4,2.3c-1.1-3.2-1.8-5.9-3-8.4c-0.7-1.5-1.8-3.4-3.2-4c-14.8-5.9-29.5-6.2-43.5,2.3c-1,0.6-2,1.8-2.7,3.1
			C103,24.4,111.8,22.2,122.1,22.2z"/>
		<path class="st2" d="M516.6,94.2c6.4-6.6,7.7-15,6-23.2c-1.4-6.4-1.9-14.7-11.1-16.3c0.8-4.9,1.7-9.6,2.5-14.3
			c1.3-8.3,0.4-9.9-6.7-14.1c-15.3-9.1-32-11-49.1-9.1c-13.2,1.5-25.4,6.4-34.1,16.8c-5.1,6.1-8.7,13.4-12.4,19.4
			c0-4,0.1-9.3,0-14.6c-0.1-9-4.6-15.9-13-18.8c-10.6-3.7-21.3-3.2-31.6,1.4c-3.2,1.4-6,3.8-9.5,6.1c-2.9-5.5-8.4-8.6-14.9-9.1
			c-6.4-0.5-13-0.4-19.3,0.7c-6.9,1.2-13.2,4.2-14,13.6c-5.8-10.2-14-14.5-24.6-14.9c-10.4-0.4-19.5,2.9-27.8,9.3
			c-9.1-10.5-20.5-10.7-32.3-8.1c-11.7,2.6-14.4,6.5-14.4,18.4c0,11,0,22,0,33.1c-0.5,0-1,0-1.4,0c-0.4-4.8-0.7-9.6-1.2-14.3
			c-0.5-5-1.1-9.9-1.8-14.9c0-0.3-0.1-0.5-0.1-0.8c0,7-1.3,14.6-3.1,16.2c-0.5,0.4-1,0.8-1.5,1c2,18.5,3.9,37,5.5,55.5
			c0.2,2.2-1.6,5.8-3.5,6.8c-12,6.3-24.4,7-36.6,0.4c-5.9-3.2-5.6-10.3-0.3-14.3c3.4-2.5,6.2-5.9,8.7-9.4c1.8-2.5,2.3-6.2-1.1-7.9
			c-2.3-1.1-5.2,0.9-7.3,4.2c-7.1,11.2-22.4,11-29.7-0.1c-1.9-2.9-3.9-5.9-7.6-5c-3.6,0.8-3.8,5.7-0.6,9.5
			c3.2,3.8,7.1,7.5,11.3,10.2c3,1.9,3.6,3.8,3.3,6.8c-0.3,3.3,0.1,6.9-4.2,7.9c-5.3,1.2-10.6,2.2-16,3.2c-7.3-0.2-14-1.7-20.3-5.1
			c-4.8-2.6-7.2-6.2-6.7-11.7c1.5-16.9,2.9-33.7,4.3-50.6c-0.8-0.1-1.7-0.6-2.6-1.4c-0.8-0.7-1.4-2.4-1.9-4.8
			c-1.9,18.7-3.7,37.3-5.4,56c-0.7,7.4,2.1,13.5,8.8,17.2c15.4,8.6,31.1,8.1,46.7,0.5c1.7-0.8,3.1-3.7,3.4-5.8
			c0.7-4.4,0.4-8,0.6-12.8c1.1,0.1,2.4-2.4,2.9-2.4c0.6,0,2,1.7,2.9,1.8c0.2,1.5,0.4,2.5,0.5,3.4c0.3,10.4,5.7,16.8,15.5,19.5
			c10.2,2.8,20.5,2.6,30.3-1.4c11.1-4.5,12.5-7.7,11.1-19.8c-0.1-0.7,0.1-1.4,0.2-3c11.7,22.3,30.8,27.9,53,26.5
			c20.2-1.3,36.1-9.6,43.2-30.3c0.3,2.9,0.3,5.6,0.3,8.4c0.3,9.1,4.7,15.2,13.2,18.7c7.7,3.2,15.7,3,23.6,1.8
			c6.2-1,12.6-2.8,16.4-7.8c2.9,1.9,5.6,4.2,8.7,5.6c7.5,3.5,15.6,3.4,23.5,2.4c12.3-1.6,16.8-7.2,16.8-19.8c0-5.9,0-11.8,0-17.7
			c4.2,11.9,10.7,21.8,21.4,28.7c7.9,5.1,16.4,8.6,25.9,9.8c18,2.3,35,0.2,50.7-9.8c4.3-2.7,6.8-5.9,6.1-11.3
			c-0.5-4.1-0.2-8.3,0-12.5C515.5,96.5,515.8,95,516.6,94.2z M303,95c-0.9,12.5-8.8,21.7-20.9,26.2c-16,6-32.1,6-47.4-1.5
			c-14.5-7-19.3-20.2-19.1-35.7c0.1-8.3,0-16.7,0-25c0-8.7-0.2-17.3,0.1-26c0.1-1.9,1.3-4.6,2.9-5.6c7.4-4.7,15.6-5.4,24-3.4
			c6.9,1.7,10.9,6.5,11.6,13.4c0.7,7.4,0.8,14.9,0.9,22.4c0.1,9.5,0.1,19,0,28.5c-0.1,3.2,1.5,5.2,4.2,4.9c1.9-0.2,3.9-2.2,5.4-3.8
			c0.7-0.8,0.6-2.5,0.5-3.9c-0.5-18.1-1-36.2-1.3-54.4c0-1.3,1.1-3.2,2.2-3.8c8.9-4.9,18.3-5.9,27.8-2.2c6.1,2.4,9.9,7.1,9.9,13.7
			C303.9,57.8,304.4,76.5,303,95z M405.1,114.1c0,5.7-3.6,9.4-11.5,9.9c-6.8,0.4-13.8-0.9-20.7-1.8c-1.5-0.2-3-2-3.9-3.5
			c-5.4-8.2-10.8-16.4-15.9-24.7c-1.7-2.7-3.5-4.8-6.7-3.2c-3.4,1.8-3.9,4.9-2.2,8.1c3,5.5,6.2,11,9.7,16.3c2.1,3.2,1.8,5.1-1.7,6.5
			c-9.9,3.8-19.7,4.1-29.6,0c-5.2-2.2-7.4-6.2-7.4-11.8c0.1-12.8,0-25.7,0-38.5c0-12.7,0.2-25.3-0.1-38c-0.1-4.5,1.8-7.3,5.9-7.9
			c6.8-1,13.8-1.7,20.7-1.7c4.8,0,8.6,2.8,11.2,7.2c4.5,7.7,9.2,15.4,14.1,22.9c0.9,1.3,3.2,2.8,4.5,2.5c1.4-0.3,3.1-2.4,3.5-4.1
			c0.4-1.7,0-4-0.8-5.7c-2.4-4.5-5.3-8.8-8-13.2c-1.7-2.8-1.6-5.1,1.5-6.6c9.6-4.6,19.5-5.3,29.5-1.6c5.1,1.9,7.9,6.2,7.9,11.7
			C405.2,62.8,405.2,88.4,405.1,114.1z M511.1,87.8c-0.8,0.1-1.9,2.4-1.9,3.8c-0.2,5.8-0.3,11.7,0,17.5c0.2,3.6-1.1,5.8-4.1,7.6
			c-14.6,9.1-30.5,10.4-47,8c-15.3-2.3-27.4-9.6-35.8-22.8c-21.3-33.3,1.1-77.3,40.3-79.5c13.2-0.7,25.9,0.7,37.9,6.5
			c7.8,3.8,7.9,4,6.8,12.6c-0.1,1.2-0.1,2.3-0.3,3.5c-1.1,6.9-1.5,7.3-8.5,7.3c-10.5,0-21-0.1-31.4,0.1c-2,0-4.8,1-5.9,2.5
			c-7.3,10.1-9.3,21.2-4,32.8c2.8,6.1,7.7,9.5,14.5,9.5c3.4,0,6.2-1,6.6-5.2c0.3-2.8-0.5-4.4-3.6-4.6c-4.4-0.3-8.4-1.8-9.4-6.7
			c-1.2-6.2-0.9-12.4,3.1-17.6c0.8-1,3.1-1.2,4.6-1.2c6.2-0.1,12.3-0.1,18.5-0.1c0,0,0,0,0,0c6.2,0,12.3,0.1,18.5,0
			c3-0.1,5,1.2,5.2,4.1c0.4,5.6,0.5,11.2,0.4,16.8C515.4,85.2,514.4,87.4,511.1,87.8z"/>
	</g>
	<g>
		<path class="st2" d="M496.8,202.5c0,7.2,0,14.5,0,23.3c-3.6-4.1-6.4-7.2-9.1-10.4C490.7,211.1,493.7,206.8,496.8,202.5z"/>
		<path class="st2" d="M129.3,184.2c-4.1-9.8-12.1-13.3-27.2-11.7c-1-2.6-1.8-4.9-2.7-7.2c-3.4-8.7-9.6-14.6-18.6-16.5
			c-5.4-1.2-11.3-1.6-16.8-1c-22.2,2.2-32.7,20.1-24,40.5c1,2.4,0.8,3.7-1.4,4.8c-20.2,9.3-22.2,45.7,0.8,59.9
			c17.6,10.9,36.2,12.5,55.6,7.2c11.6-3.2,20.8-10.2,25.9-21.6c3.9-8.9,3.6-17.7-0.3-26.2C132.7,203.3,133.3,193.5,129.3,184.2z
			 M117.3,206.3c-1.4,0.8-3.2,1.2-4.4,2.2c-1.3,1-3.1,2.6-3.2,3.9c0,1.6,1.4,4.2,2.6,4.5c5.3,1.4,5.5,5.2,5,9.4
			c-1.6,14.7-10.7,23.6-24,27.5c-17.2,5.1-34.3,4.1-49.9-5.6c-12.4-7.7-17.2-19.8-14.1-33.9c2.6-11.9,11.3-17.4,22.9-20.5
			c-1.1-1.3-1.7-2.1-2.4-2.8c-12.5-11.4-9.2-29.7,6.5-35.8c7.3-2.8,14.9-3.2,22.5-1.3c9,2.3,14.1,8.4,16,17.3
			c1.2,5.3-0.5,7.6-5.7,9.2c-6.8,2-13.8,3.7-20.3,6.5c-8.8,3.8-13.7,10.9-14.1,20.7c-0.4,9.2,3.2,16.5,11.1,21.5
			c5.1,3.2,10.7,3.5,16.4,2.1c4-1,6.1-4.7,5-7.9c-1.2-3.5-5.1-4.8-9.1-3.1c-5.6,2.4-12-1.5-12.9-7.9c-1.1-7.9,2.7-14.5,10.9-17.5
			c6.2-2.3,12.6-4,19-6c4.3-1.3,7.6-3.7,9.2-8.3c0.4-1.3,2.3-2.7,3.7-2.9c7.8-1.1,13.4,2.5,15.9,9.7
			C126.7,195,124.1,202.3,117.3,206.3z"/>
		<path class="st2" d="M336.7,203.8c-0.2-4.5-0.2-9.4-0.8-14.1c-0.3-2.7,0-5.1,2.8-5.3c2.3-0.1,4.9,0.8,6.8,2
			c1.1,0.7,1.7,2.9,1.7,4.5c-0.1,9.4-0.5,18.9-0.9,28.3c-0.2,3.9-2.1,6.3-6.4,5.7c-4.3-0.6-4.5-3.3-4.1-6.9
			C336.5,213.3,336.4,208.7,336.7,203.8z"/>
		<path class="st2" d="M440.2,192c0-1,0.1-2,0-3c-0.5-3.3-0.1-6.1,4-6.4c3.8-0.2,6.7,1.8,6.9,5.6c0.2,3.7-0.2,7.7-1.5,11.1
			c-0.6,1.6-3.8,2.9-5.9,2.9c-1.1,0-2.8-2.6-3.4-4.4C439.8,196.1,440.3,194,440.2,192C440.2,192,440.2,192,440.2,192z"/>
		<path class="st2" d="M496.8,225.8c-3.6-4.1-6.4-7.2-9.1-10.4c3.1-4.4,6.1-8.6,9.1-12.9C496.8,209.7,496.8,217,496.8,225.8z"/>
		<path class="st2" d="M591.6,233.5c-0.5-5.9-2.2-12.4-8.4-16.2c2.7-7.8,3.5-15.7,0.7-23.8c-1.3-3.8-1.6-7.3,2.7-9.8
			c1.4-0.8,2.1-2.9,2.8-4.6c3.9-9.3,1.6-18-2.9-26.3c-0.9-1.6-3.4-3.2-5.2-3.2c-19.3-0.2-38.6-0.3-57.9,0.1
			c-6.4,0.1-12.8,1.5-19.2,2.8c-4.8,1-7.2,4.3-7,9.5c0.2,4.4,0,8.7,0,13.1c-4.6-8.4-10.2-15.1-18.4-19.7c-10.5-5.9-21.8-7.9-33.6-8
			c-14.1-0.2-27.9,1.4-41,7.1c-6.2,2.7-9.9,6.8-9.2,14.2c0.5,5.3,0.1,10.6,0.1,15.9c-15-36.9-43.3-40.3-66.6-36.8
			c-20.8,3.1-42.4,19.8-43.6,54.3c-1.2-9.5-2.5-19-3.2-28.5c-1.1-14.3-6.9-23.2-18.2-24.7c-7.6-1-15.5-0.1-23.3,0.6
			c-6.6,0.6-11.6,3.8-11.8,11.6c0,0.8-0.6,1.5-1.2,3c-0.7-1.1-1.1-1.6-1.3-2.2c-0.8-2-1.3-4.2-2.2-6.1c-0.7-1.4-1.6-3.2-2.8-3.7
			c-15-5.9-29.8-6.4-44,2.3c-1.6,1-3.2,3.2-3.4,5c-2.8,26.5-5.4,53-7.8,79.6c-0.7,7.2,2.5,13,9,16.6c14.2,8,28.9,7.6,43.6,1.9
			c6.7-2.6,7.5-5.2,6.7-13c-0.1-0.8-0.4-1.6-0.4-2.4c-0.1-4.8,1.4-5.8,6.5-4.6c0.1,0.9,0.4,1.9,0.4,2.9c0.2,10.2,5.5,16.6,15.1,19.2
			c11,3,22,2.8,32.5-2.2c10-4.8,10.8-6.6,9.4-17.5c-0.3-2.1-0.6-4.3-0.7-6.5c-0.1-2,0-4,0-7.3c9.4,23.3,26.2,35,49.4,36.4
			c27.6,1.6,48.2-9.2,57.7-37c0.4,5.9,0.3,11.6,0.4,17.2c0.1,8,4.5,13,11.5,16c9.5,4,19.2,3.3,28.8,0.9c5.4-1.3,10.6-3.4,13.7-8.8
			c7.3,7.3,15.5,11,25.7,10.6c10.6-0.4,18.1-5.3,23.5-14.2c6.2,9.5,15,13.1,25.7,13.1c18.6-0.1,37.3-0.2,55.9,0.1
			c4.9,0.1,8-1.9,8.9-6.1C590.5,247.3,592.1,240.2,591.6,233.5z M277.5,250.9c-11.9,5.3-23.7,5.9-35.4-0.2
			c-6.1-3.2-5.8-10.1-0.5-14.3c3.6-2.8,6.5-6.5,9.1-10.3c1.8-2.6,1.1-5.7-1.9-7.3c-2.9-1.4-5.2-0.5-7.1,2.4
			c-7.7,11.9-22,11.9-29.7,0c-2-3.1-4.1-5-7.6-2.9c-3.5,2.1-3.5,5.5-1.1,8.1c3.7,4.1,7.4,8.6,12.1,11.4c4.3,2.6,2.6,5.8,3,9
			c0.3,3.1-1.3,4.8-3.9,5.4c-5.5,1.2-11,2.1-16.5,3.2c-7.5-0.3-14.3-1.5-20.7-5.3c-4.2-2.4-6.2-5.8-5.9-10.7
			c1.2-15.7,2.4-31.5,3.7-47.2c0.8-9.3,2.1-18.5,3-27.8c0.4-4.2,2.5-6.6,6.3-8c9.7-3.7,19.5-3.9,29.4-1.1c5.7,1.6,9.1,11.7,7.1,19.6
			c-0.8,3.2-1.4,6.5-1.4,9.8c0,1.5,1.1,3.5,2.4,4.5c3.2,2.6,5.8,1.6,6.8-2.5c2-8.6,4-17.2,5.7-25.8c0.6-3.1,2.1-5,5-5.3
			c7.2-0.6,14.5-1.7,21.7-1.3c8.2,0.5,12,4.4,13.1,12.5c2,15,3.7,30,5.3,45.1c1.1,10.1,1.7,20.2,2.9,30.3
			C282.8,246.6,281.3,249.2,277.5,250.9z M390.3,207.6c-0.4,11.1-2.5,21.9-9.4,31c-10.9,14.4-26.3,18.5-43.3,17.5
			c-18.5-1.1-33.4-9.2-41.6-26.3c-3.6-7.6-4.5-16.5-6.6-24.8c0.4-0.1,0.8-0.2,1.2-0.3c-0.7-22.9,10.7-41.7,30-48.9
			c15.5-5.8,42-6,57.4,12.3C387.8,179.6,390.8,193.1,390.3,207.6z M495,236.3c-1.1,10.5-9.1,17.9-19.6,18.3
			c-14.1,0.5-22.9-5.7-27-19.2c-2.6-8.5-2.6-8.7-11.8-9.3c-1.8-0.1-4.6,1.2-5.3,2.6c-1.3,2.6-0.1,5,2.9,6.3c1.8,0.8,4,2.2,4.7,3.9
			c5.2,11.9,2.6,12.5-6.7,14.5c-8.3,1.9-16.8,2.4-24.9-1.4c-4.1-2-6.6-5-6.6-9.7c0-10.5-0.1-21-0.1-31.5c0-2.5,0-5,0-7.5
			c-0.1,0-0.1,0-0.2,0c0-11.5,0.3-23-0.1-34.5c-0.2-5.1,2-7.7,6.2-9.5c13-5.5,26.6-7,40.5-6.5c11.1,0.4,21.8,2.5,31.1,9
			c10.6,7.4,14.6,17.7,13.5,30.3c-0.9,11.3-7.3,18.5-17.5,22.7c-2.7,1.1-4.2,2.7-3.3,5.7c1.1,3.6,4.6,5,7.1,3.7
			c9.2-4.8,11.7,3.5,16.1,7.8C495.2,232.9,495.2,234.9,495,236.3z M584,249.8c-1,3.1-3.1,3.9-6.1,3.8c-4.7-0.1-9.5-0.1-14.2-0.1
			c-4.7,0-9.5,0-14.2,0c-4.4,0-8.8,0-13.2,0c-4.4,0-8.8,0-13.2-0.1c-2.5,0-5-0.4-7.4-0.9c-7.7-1.8-11.2-5.4-12.2-13.1
			c-0.5-3.6-0.6-7.3-0.6-11c-0.1-21.5,0.1-43-0.1-64.5c-0.1-4.7,1.7-6.8,6-7.2c7.9-0.7,15.9-1.7,23.8-1.8
			c14.1-0.3,28.3,0.1,42.4-0.2c5.2-0.1,8.3,1.2,8.7,6.7c0.3,3.6,1.2,7.3,0.9,10.8c-0.4,6.7-4.1,9.8-10.8,9.8c-9.3,0.1-18.6,0-27.9,0
			c-1.5,0-3,0-4.5,0.2c-3.2,0.5-5,2.7-4.1,5.6c0.6,1.8,3.1,4.2,4.7,4.2c10.1,0.3,20.3,0.1,30.4-0.3c4.3-0.2,6.1,1.6,6.4,5.6
			c0.1,0.8,0.2,1.7,0.2,2.5c0.9,13.3,0,14.1-13.3,14.4c-8.1,0.2-16.2,1-24.3,1.8c-3.8,0.4-7,2.4-6.2,6.8c0.9,4.5,4.6,3.5,8,3.3
			c12.2-0.8,24.5-1.4,36.7-1.7c1.3,0,3.4,1.7,3.8,3C586.4,235,586.3,242.4,584,249.8z"/>
	</g>
</g>
</svg>
